<svg width="149" height="30" viewBox="0 0 149 30" fill="none" xmlns="http://www.w3.org/2000/svg">
<circle cx="30" cy="15" r="15" fill="#38B131"/>
<circle cx="15" cy="15" r="15" fill="#E4B279"/>
<path d="M64 10.228V11.81H59.926V14.316H63.048V15.87H59.926V20H57.966V10.228H64ZM67.3498 9.64V20H65.3898V9.64H67.3498ZM72.7303 20.126C71.9836 20.126 71.3116 19.9627 70.7143 19.636C70.117 19.3 69.6456 18.8287 69.3003 18.222C68.9643 17.6153 68.7963 16.9153 68.7963 16.122C68.7963 15.3287 68.969 14.6287 69.3143 14.022C69.669 13.4153 70.1496 12.9487 70.7563 12.622C71.363 12.286 72.0396 12.118 72.7863 12.118C73.533 12.118 74.2096 12.286 74.8163 12.622C75.423 12.9487 75.899 13.4153 76.2443 14.022C76.599 14.6287 76.7763 15.3287 76.7763 16.122C76.7763 16.9153 76.5943 17.6153 76.2303 18.222C75.8756 18.8287 75.3903 19.3 74.7743 19.636C74.1676 19.9627 73.4863 20.126 72.7303 20.126ZM72.7303 18.418C73.085 18.418 73.4163 18.334 73.7243 18.166C74.0416 17.9887 74.2936 17.7273 74.4803 17.382C74.667 17.0367 74.7603 16.6167 74.7603 16.122C74.7603 15.3847 74.5643 14.82 74.1723 14.428C73.7896 14.0267 73.3183 13.826 72.7583 13.826C72.1983 13.826 71.727 14.0267 71.3443 14.428C70.971 14.82 70.7843 15.3847 70.7843 16.122C70.7843 16.8593 70.9663 17.4287 71.3303 17.83C71.7036 18.222 72.1703 18.418 72.7303 18.418ZM88.966 12.244L86.698 20H84.584L83.17 14.582L81.756 20H79.628L77.346 12.244H79.334L80.706 18.152L82.19 12.244H84.262L85.718 18.138L87.09 12.244H88.966ZM97.2365 15.954C97.2365 16.234 97.2179 16.486 97.1805 16.71H91.5105C91.5572 17.27 91.7532 17.7087 92.0985 18.026C92.4439 18.3433 92.8685 18.502 93.3725 18.502C94.1005 18.502 94.6185 18.1893 94.9265 17.564H97.0405C96.8165 18.3107 96.3872 18.9267 95.7525 19.412C95.1179 19.888 94.3385 20.126 93.4145 20.126C92.6679 20.126 91.9959 19.9627 91.3985 19.636C90.8105 19.3 90.3485 18.8287 90.0125 18.222C89.6859 17.6153 89.5225 16.9153 89.5225 16.122C89.5225 15.3193 89.6859 14.6147 90.0125 14.008C90.3392 13.4013 90.7965 12.9347 91.3845 12.608C91.9725 12.2813 92.6492 12.118 93.4145 12.118C94.1519 12.118 94.8099 12.2767 95.3885 12.594C95.9765 12.9113 96.4292 13.364 96.7465 13.952C97.0732 14.5307 97.2365 15.198 97.2365 15.954ZM95.2065 15.394C95.1972 14.89 95.0152 14.4887 94.6605 14.19C94.3059 13.882 93.8719 13.728 93.3585 13.728C92.8732 13.728 92.4625 13.8773 92.1265 14.176C91.7999 14.4653 91.5992 14.8713 91.5245 15.394H95.2065ZM100.627 13.448C100.879 13.0373 101.206 12.7153 101.607 12.482C102.018 12.2487 102.485 12.132 103.007 12.132V14.19H102.489C101.873 14.19 101.407 14.3347 101.089 14.624C100.781 14.9133 100.627 15.4173 100.627 16.136V20H98.6672V12.244H100.627V13.448ZM111.453 13.252C111.453 13.7747 111.327 14.2647 111.075 14.722C110.833 15.1793 110.445 15.548 109.913 15.828C109.391 16.108 108.728 16.248 107.925 16.248H106.287V20H104.327V10.228H107.925C108.681 10.228 109.325 10.3587 109.857 10.62C110.389 10.8813 110.786 11.2407 111.047 11.698C111.318 12.1553 111.453 12.6733 111.453 13.252ZM107.841 14.666C108.383 14.666 108.784 14.5447 109.045 14.302C109.307 14.05 109.437 13.7 109.437 13.252C109.437 12.3 108.905 11.824 107.841 11.824H106.287V14.666H107.841ZM116.289 20.126C115.542 20.126 114.87 19.9627 114.273 19.636C113.676 19.3 113.204 18.8287 112.859 18.222C112.523 17.6153 112.355 16.9153 112.355 16.122C112.355 15.3287 112.528 14.6287 112.873 14.022C113.228 13.4153 113.708 12.9487 114.315 12.622C114.922 12.286 115.598 12.118 116.345 12.118C117.092 12.118 117.768 12.286 118.375 12.622C118.982 12.9487 119.458 13.4153 119.803 14.022C120.158 14.6287 120.335 15.3287 120.335 16.122C120.335 16.9153 120.153 17.6153 119.789 18.222C119.434 18.8287 118.949 19.3 118.333 19.636C117.726 19.9627 117.045 20.126 116.289 20.126ZM116.289 18.418C116.644 18.418 116.975 18.334 117.283 18.166C117.6 17.9887 117.852 17.7273 118.039 17.382C118.226 17.0367 118.319 16.6167 118.319 16.122C118.319 15.3847 118.123 14.82 117.731 14.428C117.348 14.0267 116.877 13.826 116.317 13.826C115.757 13.826 115.286 14.0267 114.903 14.428C114.53 14.82 114.343 15.3847 114.343 16.122C114.343 16.8593 114.525 17.4287 114.889 17.83C115.262 18.222 115.729 18.418 116.289 18.418ZM132.525 12.244L130.257 20H128.143L126.729 14.582L125.315 20H123.187L120.905 12.244H122.893L124.265 18.152L125.749 12.244H127.821L129.277 18.138L130.649 12.244H132.525ZM140.795 15.954C140.795 16.234 140.776 16.486 140.739 16.71H135.069C135.116 17.27 135.312 17.7087 135.657 18.026C136.002 18.3433 136.427 18.502 136.931 18.502C137.659 18.502 138.177 18.1893 138.485 17.564H140.599C140.375 18.3107 139.946 18.9267 139.311 19.412C138.676 19.888 137.897 20.126 136.973 20.126C136.226 20.126 135.554 19.9627 134.957 19.636C134.369 19.3 133.907 18.8287 133.571 18.222C133.244 17.6153 133.081 16.9153 133.081 16.122C133.081 15.3193 133.244 14.6147 133.571 14.008C133.898 13.4013 134.355 12.9347 134.943 12.608C135.531 12.2813 136.208 12.118 136.973 12.118C137.71 12.118 138.368 12.2767 138.947 12.594C139.535 12.9113 139.988 13.364 140.305 13.952C140.632 14.5307 140.795 15.198 140.795 15.954ZM138.765 15.394C138.756 14.89 138.574 14.4887 138.219 14.19C137.864 13.882 137.43 13.728 136.917 13.728C136.432 13.728 136.021 13.8773 135.685 14.176C135.358 14.4653 135.158 14.8713 135.083 15.394H138.765ZM144.186 13.448C144.438 13.0373 144.764 12.7153 145.166 12.482C145.576 12.2487 146.043 12.132 146.566 12.132V14.19H146.048C145.432 14.19 144.965 14.3347 144.648 14.624C144.34 14.9133 144.186 15.4173 144.186 16.136V20H142.226V12.244H144.186V13.448Z" fill="black"/>
</svg>
